PathFileType	4	(X/Y/Z)	C:/Users/beibeiliu/ov580/test_trc/User2\sequence.24_training_dense_left.trc
DataRate	CameraRate	NumFrames	NumMarkers	Units	OrigDataRate	OrigDataStartFrame	OrigNumFrames
120	120	21	19	mm	120	1	451
Frame#	Time	ThumbCMC			ThumbMCP			ThumbIP			ThumbTip			IndexMCP			IndexPIP			IndexTip			MiddleMCP			MiddlePIP			MiddleTip			RingMCP			RingPIP			RingTip			PinkyMCP			PinkyPIP			PinkyTip			BackHand1			BackHand2			BackHand3	
		X0	Y0	Z0	X1	Y1	Z1	X2	Y2	Z2	X3	Y3	Z3	X4	Y4	Z4	X5	Y5	Z5	X6	Y6	Z6	X7	Y7	Z7	X8	Y8	Z8	X9	Y9	Z9	X10	Y10	Z10	X11	Y11	Z11	X12	Y12	Z12	X13	Y13	Z13	X14	Y14	Z14	X15	Y15	Z15	X16	Y16	Z16	X17	Y17	Z17	X18	Y18	Z18	
0	0	-129.788	-68.8826	97.125	-112.188	-78.6922	75.4175	-90.8877	-85.609	48.0678	-77.2925	-94.6101	26.6093	-156.781	-61.7254	17.2475	-152.599	-62.0461	-9.14118	-151.819	-58.3876	-41.4107	-186.743	-62.1665	11.0303	-195.214	-64.3957	-18.5471	-205.271	-66.045	-48.0165	-209.957	-70.1375	18.3336	-219.074	-73.9338	-2.20947	-228.963	-79.0697	-29.0303	-230.561	-78.4503	41.7672	-241.004	-82.4452	22.6396	-250.793	-80.3917	-1.76963	-199.547	-54.9959	71.9599	-195.762	-46.0943	108.743	-163.794	-47.3286	83.6709	
1	0.00833333	-132.366	-69.9005	94.7747	-112.205	-77.8946	73.8793	-96.8077	-87.0154	47.1892	-79.1728	-95.945	26.4315	-158.423	-61.8123	15.4065	-155.536	-61.1381	-13.4896	-155.025	-59.3836	-42.6978	-187.526	-62.6422	8.19771	-194.502	-64.9149	-16.5153	-206.053	-66.3905	-48.1671	-214.752	-70.197	21.3634	-219.216	-74.9287	-2.91439	-230.949	-78.9392	-33.9974	-227.822	-79.4369	44.5156	-244.529	-82.4594	18.3752	-253.838	-79.7599	1.14916	-202.286	-56.1776	75.9607	-196.084	-45.6646	105.606	-164.132	-48.6799	81.6764	
2	0.0166667	-132.708	-70.481	96.5274	-114.409	-78.6775	76.3427	-93.495	-87.0652	44.1784	-82.2079	-96.2365	29.7744	-153.836	-62.0726	11.6343	-156.01	-62.2866	-11.5159	-151.344	-59.8558	-38.6626	-189.599	-62.0899	11.8951	-195.419	-65.166	-17.7097	-202.92	-66.0507	-47.2156	-209.69	-69.5551	21.9304	-221.338	-75.4978	-7.00944	-231.872	-79.3902	-32.7226	-230.131	-78.3024	43.7271	-244.162	-83.0522	20.4956	-253.046	-82.1443	-0.19662	-203.392	-55.4787	75.4089	-195.703	-47.2674	105.44	-165.683	-48.6685	84.6019	
3	0.025	-130.008	-70.0866	91.7667	-115.218	-79.1931	73.2775	-95.3453	-87.3103	46.1402	-81.1545	-96.1313	31.3576	-156.568	-62.6976	12.569	-151.756	-61.3943	-14.4726	-156.568	-61.0797	-37.4388	-186.993	-62.5537	13.0303	-196.14	-65.4726	-19.4821	-205.699	-66.8678	-47.1797	-210.024	-69.9977	19.5742	-221.649	-75.5816	-5.25415	-227.932	-79.2658	-28.6075	-225.265	-79.3374	43.8969	-239.717	-81.8605	19.4619	-252.854	-80.1498	0.506857	-201.944	-57.2649	72.6719	-199.584	-47.5412	105.054	-164.571	-48.8697	81.6008	
4	0.0333333	-133.837	-70.9227	96.0267	-113.552	-78.9318	71.86	-92.2976	-87.1331	47.9993	-78.0865	-96.1087	30.2337	-153.561	-62.1036	16.0906	-153.097	-61.7711	-9.32424	-151.681	-59.787	-36.8125	-185.867	-61.5124	7.1155	-193.805	-65.9254	-22.2139	-202.793	-66.4438	-46.1801	-214.04	-71.2091	21.8038	-220.644	-75.2534	-7.00828	-230.934	-80.5805	-32.344	-231.151	-79.4689	43.4155	-238.164	-82.5407	20.1677	-253.082	-80.534	-0.0465562	-202.536	-55.5175	73.2148	-194.04	-46.6697	102.753	-165.142	-49.8554	81.7858	
5	0.0416667	-133.377	-71.0676	91.9641	-114.266	-78.8012	72.8768	-94.6599	-87.2617	44.297	-77.7028	-96.3999	28.9728	-152.559	-62.9238	17.1712	-155.954	-62.414	-13.4413	-152.453	-60.6106	-36.9459	-189.395	-63.2896	8.95131	-193.904	-65.7861	-19.2591	-206.097	-67.4062	-46.5656	-214.366	-71.4114	21.794	-223.389	-76.1931	-5.75654	-231.398	-80.6755	-28.8887	-228.73	-78.4784	42.9767	-237.835	-82.8651	22.0515	-253.318	-83.2571	0.498454	-198.381	-55.4103	76.022	-195.773	-47.3854	105.057	-161.366	-49.8415	82.5885	
6	0.05	-130.946	-70.4212	92.1671	-111.744	-78.7126	72.0945	-95.7588	-89.1789	48.6245	-80.8525	-96.9605	29.6391	-156.739	-62.9185	12.1569	-152.308	-63.4406	-9.58249	-154.801	-60.8991	-37.2613	-190.375	-63.4594	8.57826	-193.286	-66.121	-17.0934	-204.634	-66.1974	-48.7127	-209.242	-70.7759	22.4451	-221.358	-76.1082	-3.35461	-229.236	-79.4055	-33.6327	-231.05	-79.1801	43.4749	-242.794	-83.0023	18.0378	-254.087	-82.4067	-0.870276	-197.187	-57.4685	76.3107	-197.003	-47.1329	106.795	-164.469	-48.1902	84.0566	
7	0.0583333	-131.042	-69.849	96.895	-112.542	-79.2243	75.2904	-92.1855	-87.0893	45.1275	-77.4667	-96.2302	30.3472	-155.731	-62.5434	13.2926	-152.039	-63.1454	-14.4131	-155.897	-60.7955	-37.2949	-188.676	-63.6068	8.40853	-194.725	-66.6947	-17.8314	-202.145	-67.148	-52.1575	-209.688	-70.7557	20.9921	-223.958	-76.7877	-3.09341	-230.759	-80.6834	-29.3375	-231.808	-78.205	41.0765	-240.528	-83.0374	20.9942	-254.998	-82.5491	-3.61017	-202.76	-57.1085	76.9771	-197.322	-47.4619	104.835	-161.884	-47.4257	82.5482	
8	0.0666667	-131.968	-71.2815	94.0849	-113.993	-79.9178	72.3864	-96.7857	-88.4306	46.6521	-79.9727	-96.5646	26.133	-155.73	-62.6705	15.6042	-153.581	-62.3286	-14.9637	-150.939	-60.1672	-42.1169	-187.523	-62.9001	11.4891	-198.056	-66.4134	-20.7644	-204.006	-67.2911	-49.0319	-212.346	-71.1138	19.7138	-223.275	-76.9562	-3.1474	-228.346	-81.9615	-33.1874	-230.622	-78.8981	45.1442	-240.099	-83.2618	21.6442	-254.68	-82.8612	-1.65075	-200.623	-57.7392	74.9325	-197.789	-48.0259	108.009	-163.827	-49.8876	84.1592	
9	0.075	-134.576	-70.9148	96.0857	-110.783	-78.9632	73.3852	-92.7979	-87.017	48.8526	-83.1171	-97.9223	29.8011	-155.015	-61.9241	14.6715	-156.148	-61.7522	-9.98149	-154.806	-58.9716	-38.87	-186.88	-61.9256	9.04338	-193.498	-64.9595	-19.3415	-202.733	-66.8445	-47.6688	-209.764	-71.3392	17.3186	-223.411	-78.2799	-1.94964	-228.409	-86.7593	-31.2388	-226.321	-79.1398	43.6169	-241.788	-85.1454	18.3856	-251.072	-87.7092	-3.53873	-203.943	-56.5598	76.0893	-198.704	-47.2858	104.144	-163.434	-48.7062	85.0504	
10	0.0833333	-132.36	-69.3291	93.5155	-113.231	-79.0091	73.2914	-95.3473	-88.6111	45.8017	-81.446	-97.8787	26.318	-157.382	-60.6667	13.7299	-153.323	-60.0772	-11.2542	-155.474	-57.6828	-41.4312	-188.235	-60.9261	7.75852	-193.745	-64.6179	-18.3071	-205.817	-66.2914	-46.8677	-214.396	-73.6238	20.4517	-221.284	-81.8458	-3.53468	-225.034	-93.706	-33.2704	-225.61	-80.1643	42.011	-238.223	-88.3718	16.1042	-245.332	-97.2112	-6.06917	-203.708	-55.8643	76.4445	-198.1	-48.147	103.456	-165.699	-47.0563	84.1874	
11	0.0916667	-134.948	-70.7563	95.6849	-110.595	-79.7317	73.141	-95.9424	-90.3051	44.2418	-89.4132	-101.604	24.332	-155.557	-58.5845	13.0206	-153.28	-57.786	-14.135	-155.408	-56.5206	-38.3025	-187.405	-59.5665	10.3729	-196.375	-62.6453	-20.2315	-205.049	-64.3853	-51.1864	-211.339	-72.945	20.8945	-215.864	-83.8902	-5.09574	-222.257	-99.8138	-29.6638	-223.865	-80.8459	34.7944	-231.125	-93.0328	15.012	-238.201	-110.213	-8.69789	-203.445	-53.3721	73.9716	-199.642	-46.0866	105.466	-162.364	-48.2117	82.1135	
12	0.1	-134.677	-70.7058	90.6993	-116.815	-83.8838	70.1826	-99.5912	-96.1543	40.7596	-93.1326	-107.055	19.5487	-153.779	-57.608	11.9822	-150.462	-56.7053	-13.2119	-153.169	-55.6532	-37.5369	-185.049	-58.6763	8.04858	-195.369	-61.9874	-21.8167	-204.626	-63.4097	-47.3653	-211.245	-72.1768	18.9362	-212.426	-86.6643	-9.10072	-216.265	-108.123	-29.4631	-224.194	-82.4089	38.4138	-227.386	-98.6739	14.9626	-225.061	-122.838	-6.04599	-198.012	-54.6033	72.1188	-194.98	-45.8923	107.354	-162.718	-48.0362	84.6504	
13	0.108333	-131.959	-73.2566	93.9834	-113.731	-86.6069	66.6942	-106.306	-100.528	35.3721	-105.004	-114.203	13.8785	-157.104	-58.188	15.5536	-152.937	-56.4544	-10.2867	-153.471	-54.7404	-41.4356	-186.394	-57.9663	6.84282	-192.732	-61.8285	-21.7901	-201.217	-63.8744	-47.7201	-206.959	-72.5453	15.9685	-211.249	-87.4841	-6.10173	-209.784	-114.421	-24.5893	-218.713	-84.2148	32.9393	-221.737	-108.562	12.3804	-213.638	-132.66	2.87689	-198.283	-54.7749	72.3745	-194.382	-44.4473	104.659	-161.575	-45.4909	86.2252	
14	0.116667	-130.341	-72.6896	91.9484	-115.636	-88.8533	67.461	-112.924	-105.472	34.543	-120.07	-118.421	12.9573	-157.071	-58.229	12.0633	-154.631	-57.4718	-12.5778	-153.923	-56.2725	-41.2474	-184.072	-58.9289	9.5619	-191.056	-62.7165	-21.0789	-203.338	-66.2704	-53.3418	-205.064	-73.4265	16.3002	-208.987	-92.7758	-7.97877	-203.484	-121.844	-17.5889	-221.203	-87.3011	32.7715	-219.484	-110.103	15.554	-207.689	-142.916	12.8656	-201.731	-53.6387	75.1463	-193.437	-47.2581	103.806	-163.046	-46.5373	83.1306	
15	0.125	-130.993	-74.6499	90.5464	-120.298	-92.2957	62.6346	-123.462	-109.3	28.3223	-133.232	-123.809	12.2857	-154.32	-59.0286	13.0106	-150.45	-58.0184	-13.7027	-155.509	-55.6831	-44.253	-186.554	-59.774	10.4245	-190.395	-63.6578	-24.7142	-200.183	-67.2852	-50.9824	-205.206	-74.7293	17.3392	-205.241	-96.152	-6.26339	-199.43	-130.355	-7.58944	-220.337	-89.4052	33.4742	-213.443	-115.448	17.0949	-199.104	-143.883	24.2909	-199.236	-56.2585	71.3659	-193.788	-47.2727	103.765	-161.258	-45.5645	79.3571	
16	0.133333	-130.679	-74.8378	91.2832	-123.17	-95.4667	58.1998	-132.066	-112.69	30.8367	-151.686	-123.947	11.2865	-154.656	-59.5584	14.6371	-153.57	-59.4316	-16.4957	-153.74	-57.0875	-41.7596	-187.031	-61.7215	11.5448	-193.535	-64.7827	-22.0738	-200.714	-68.6201	-50.4994	-200.778	-77.4556	15.2003	-204.093	-103.13	-5.81189	-191.927	-137.071	5.7881	-216.792	-92.4391	32.4322	-210.427	-119.174	19.3305	-195.415	-141.908	35.3118	-199.453	-56.1982	75.0568	-193.774	-46.7281	101.191	-163.558	-46.0529	78.9218	
17	0.141667	-129.932	-75.4286	89.1651	-124.689	-97.8778	62.7037	-137.01	-115.713	32.7247	-160.065	-125.796	15.076	-150.374	-59.4302	15.0081	-152.044	-60.0004	-16.379	-151.596	-58.8689	-41.2945	-184.867	-61.2906	6.54604	-188.77	-65.0381	-22.0505	-199.813	-70.0676	-55.0134	-202.001	-78.4212	14.321	-201.067	-103.352	-4.60596	-183.102	-132.29	13.5822	-212.853	-92.1267	34.0903	-205.551	-124.516	21.647	-192.255	-139.546	42.0051	-197.524	-56.7389	71.2215	-196.315	-48.4753	100.8	-164.704	-46.4866	80.9476	
18	0.15	-129.728	-75.5724	88.4579	-126.517	-98.5165	63.762	-142.272	-117.641	30.186	-166.982	-123.392	22.059	-150.175	-59.8403	15.9151	-147.918	-58.4685	-13.6826	-151.285	-58.4359	-41.3844	-181.273	-59.9504	9.6067	-189.791	-64.4257	-25.1278	-195.921	-68.4199	-49.9917	-199.519	-76.3321	16.2255	-198.898	-104.44	-4.77206	-182.234	-132.015	17.253	-211.697	-93.4474	33.6341	-199.627	-124.302	23.1307	-187.307	-136.706	46.0847	-195.596	-57.1755	72.8081	-196.102	-46.8986	103.365	-164.392	-48.2199	82.7329	
19	0.158333	-131.649	-76.2153	91.3779	-123.983	-100.427	62.2209	-141.958	-117.371	34.3166	-167.96	-124.89	21.5478	-150.617	-57.2406	12.572	-146.896	-57.3345	-10.3212	-148.172	-57.6519	-40.5387	-179.869	-59.0212	6.78304	-181.148	-62.6781	-23.0912	-190.82	-67.5588	-51.1704	-199.523	-75.3462	12.9457	-195.423	-97.4442	-5.75487	-180.29	-128.923	12.7127	-211.889	-92.9743	34.2996	-201.453	-124.125	22.8304	-188.155	-136.295	50.4676	-195.947	-55.4122	69.9704	-193.342	-49.061	105.298	-158.088	-45.7158	83.6466	
20	0.166667	-132.012	-75.285	94.9349	-125.257	-99.8664	61.3854	-143.682	-117.142	33.112	-170.911	-124.018	22.802	-148.821	-57.7886	17.8453	-147.5	-56.8699	-13.5986	-147.299	-56.1498	-41.9514	-179.373	-59.9934	10.3961	-178.557	-61.8557	-21.5795	-187.091	-66.316	-53.2481	-197.331	-74.082	16.4589	-194.497	-100.327	-7.37326	-178.831	-126.569	8.52401	-209.556	-93.951	33.9849	-199.425	-124.426	24.8541	-183.532	-133.987	51.1393	-194.716	-57.5813	71.526	-192.939	-48.6308	101.246	-161.707	-45.6909	80.645	
